<svg xmlns="http://www.w3.org/2000/svg" xmlns:xlink="http://www.w3.org/1999/xlink" version="1.1" id="3882349757" x="0px" y="0px" width="25px" height="40px" viewBox="0 0 106.754 160" enable-background="new 0 0 106.754 160" xml:space="preserve" preserveAspectRatio="none" class="element svg-element">
<path fill="#2A7259" d="M106.622,102.639l-8.232-14.207L83.917,76.614l10.357-11.287l0.133-0.398l7.967-18.058v-0.133l-2.258-17.262  l-0.266-0.266L88.299,13.676L69.709,2.39l-0.398-0.133L47.004,0h-0.133L22.838,8.232l-0.398,0.266L7.568,23.635L0,46.739  l32.133,0.664l10.356-19.917H61.61l8.498,16.332l-0.266,0.531l-0.133,0.266L63.071,59.22l-0.133-0.133v0.266l-19.652,5.046v26.424  l21.909,3.451l0.133,0.398l0.133-0.133l7.701,18.324h-0.133l0,0l-8.498,17.926l-15.27,2.257l-11.153-6.772l-0.266-0.133l0,0  l-7.701-14.605L0,111.934l8.1,25.361l12.879,13.543l0.398,0.266L45.145,160h0.133l25.494-2.258l0.398-0.133l24.697-14.473  l0.266-0.266l8.896-16.066l1.726-23.635L106.622,102.639z M66.257,93.742l16.995-16.332l1.461,19.785  c-0.266,0.133-0.398,0.266-0.531,0.531L66.257,93.742z M62.805,76.481c0-0.133,0-0.133,0-0.266l11.419-8.631  c0.132,0.133,0.397,0.133,0.53,0.133s0.266,0,0.398-0.133l7.568,8.631L62.805,76.481z M70.905,43.817l7.701-21.112c0,0,0,0,0.133,0  h0.133l6.639,21.377c-0.133,0.133-0.266,0.266-0.398,0.398H70.639L70.905,43.817L70.905,43.817z M84.846,45.013  c0,0.398,0.133,0.664,0.398,0.929L75.02,65.593c-0.133,0-0.133,0-0.266,0l-4.248-20.448L84.846,45.013z M84.713,99.319  c0,0,0.133,0,0.133,0.133l3.055,25.626c-0.133,0-0.133,0.133-0.266,0.133l-13.677-12.348L84.713,99.319z M88.962,125.078  c-0.133,0-0.266-0.132-0.398-0.132L85.51,99.319c0.266-0.133,0.531-0.266,0.664-0.53l19.519,4.248L88.962,125.078z M105.693,102.373  L86.44,98.258c0-0.133,0-0.266-0.133-0.398l11.685-8.631L105.693,102.373z M97.46,88.564l-11.685,8.631  c-0.133-0.133-0.266-0.133-0.531-0.133l-1.461-19.652L97.46,88.564z M83.385,76.216l-7.701-8.896  c0.133-0.133,0.133-0.133,0.133-0.266l17.395-1.593L83.385,76.216z M75.817,66.39c0-0.266-0.133-0.398-0.266-0.531l10.357-19.651  c0,0,0,0,0.133,0l7.568,18.589L75.817,66.39z M94.008,64.266l-7.436-18.191c0.266-0.133,0.531-0.531,0.531-0.797l14.34,1.859  L94.008,64.266z M101.709,46.473l-14.605-1.859c0-0.133-0.133-0.266-0.266-0.266l12.613-13.942L101.709,46.473z M86.307,43.95  h-0.133l-6.639-21.51c0.133-0.133,0.266-0.266,0.266-0.398l19.518,7.701L86.307,43.95z M98.788,28.813l-18.986-7.436  c0,0,0,0,0-0.133l0,0l0,0c0-0.133,0-0.265-0.133-0.265l8.365-6.506L98.788,28.813z M87.502,13.942l-8.365,6.506  c-0.133-0.133-0.398-0.133-0.531-0.133l0,0l-8.365-16.73L87.502,13.942z M77.942,20.581c0,0-0.133,0-0.133,0.133l-23.104-7.038l0,0  c0-0.133,0-0.266-0.133-0.398l14.871-9.958L77.942,20.581z M68.514,2.921l-14.34,9.693c-0.133-0.133-0.398-0.266-0.664-0.266  c-0.133,0-0.133,0-0.266,0L47.535,0.664L68.514,2.921z M46.738,0.797l5.842,11.95c-0.133,0.133-0.133,0.266-0.266,0.266  L24.033,8.498L46.738,0.797z M22.971,9.427l18.589,17.66l-18.722,3.054c-0.133-0.266-0.398-0.531-0.664-0.531L22.971,9.427z   M22.307,9.427L21.51,29.344c-0.266,0-0.398,0.133-0.664,0.398L8.232,23.768L22.307,9.427z M7.967,24.432l12.614,5.975  c0,0.133,0,0.133,0,0.266s0,0.266,0.133,0.398L1.195,45.676L7.967,24.432z M1.46,46.208l19.651-14.606  c0.133,0.133,0.398,0.266,0.664,0.266c0.133,0,0.266,0,0.398-0.133l9.294,15.137L1.46,46.208z M32,46.473l-9.295-15.137  c0.133-0.133,0.266-0.398,0.266-0.531l18.722-3.054L32,46.473z M42.224,26.689L23.635,9.029l28.548,4.514  c0,0.133,0.132,0.266,0.132,0.398L42.224,26.689z M43.021,26.954l9.958-12.348c0.133,0.133,0.266,0.133,0.531,0.133  c0.133,0,0.133,0,0.266,0l7.568,12.215H43.021z M54.307,14.34l0.133-0.133l23.104,7.037v0.133l-15.402,5.444L54.307,14.34z   M62.274,27.353l15.27-5.444c0.133,0.133,0.266,0.266,0.398,0.398l-7.436,20.581L62.274,27.353z M69.975,45.809l4.116,19.917  c-0.133,0.133-0.266,0.133-0.266,0.266l-10.224-6.241L69.975,45.809z M63.469,60.282l10.091,6.241v0.133  c0,0.133,0,0.398,0.133,0.531l-11.419,8.498c-0.133-0.133-0.266-0.133-0.398-0.133L63.469,60.282z M62.805,60.149l-1.594,15.535  c-0.133,0-0.266,0.133-0.398,0.266L44.481,64.93L62.805,60.149z M43.95,65.328l16.597,11.154v0.133c0,0.133,0,0.266,0,0.266  l-0.133,0.133l0,0L43.95,89.893V65.328z M44.481,90.424l16.465-12.748c0.133,0.133,0.266,0.133,0.398,0.266l3.718,15.667  L44.481,90.424z M62.008,77.809c0.398-0.133,0.664-0.398,0.664-0.664l19.916-0.132L65.726,93.344L62.008,77.809z M66.125,94.406  l18.058,3.984c0,0.133,0,0.266,0.133,0.398l-10.622,13.41L66.125,94.406z M73.56,113.395l13.677,12.348  c0,0.133-0.133,0.266-0.133,0.398v0.133l-21.776,4.383L73.56,113.395z M87.502,126.938l0.133,0.133l-16.199,16.066  c-0.266-0.133-0.398-0.266-0.797-0.266c-0.133,0-0.133,0-0.266,0.133l-5.179-11.552L87.502,126.938z M64.664,131.718l5.179,11.685  c-0.133,0.266-0.266,0.531-0.266,0.797l-22.706,2.391c0,0,0,0,0-0.133L64.664,131.718z M49.128,133.842l14.606-2.124l-17.262,14.341  c-0.132-0.133-0.398-0.133-0.664-0.133h-0.133l-7.303-18.59L49.128,133.842z M37.045,126.141H20.183  c0-0.133-0.133-0.398-0.266-0.531l9.958-13.145L37.045,126.141z M29.344,112.199l-9.958,13.145c-0.133,0-0.266,0-0.398,0  c-0.266,0-0.531,0.133-0.664,0.266L1.46,112.465L29.344,112.199z M1.062,113.129l16.863,13.012c0,0.133,0,0.266,0,0.398  s0,0.266,0.133,0.398l-9.428,9.561L1.062,113.129z M8.896,137.162l9.56-9.693c0.133,0,0.133,0.133,0.266,0.133l2.257,22.174  L8.896,137.162z M19.386,127.602c0.398-0.133,0.664-0.398,0.797-0.797h16.863l-15.402,22.971L19.386,127.602z M37.577,127.203  l7.436,18.988c-0.133,0.133-0.266,0.398-0.266,0.664l-22.705,3.451L37.577,127.203z M45.012,159.203l-22.307-8.365l22.174-3.452  c0.133,0.266,0.266,0.398,0.531,0.531L45.012,159.203z M45.676,159.336l0.398-11.153c0.266,0,0.531-0.133,0.796-0.398l22.706,9.427  L45.676,159.336z M47.004,147.12l22.838-2.39c0.133,0.133,0.266,0.398,0.531,0.398l0.133,11.685L47.004,147.12z M71.17,156.813  l-0.133-11.552c0.398-0.133,0.664-0.266,0.797-0.664l22.439-1.328L71.17,156.813z M71.967,143.934c0-0.133,0-0.133-0.133-0.266  l16.465-16.332c0,0,0,0,0.132,0c0,0,0,0,0.133,0l6.772,15.137L71.967,143.934z M95.735,141.941l-6.64-14.871  c0.133-0.133,0.266-0.266,0.266-0.398l14.739,0.133L95.735,141.941z M104.365,126.141l-14.871-0.133c0-0.133,0-0.266-0.133-0.398  l16.465-21.643L104.365,126.141z" style="fill: rgb(74, 205, 146);"></path>
</svg>