<svg xmlns="http://www.w3.org/2000/svg" xmlns:xlink="http://www.w3.org/1999/xlink" version="1.1" id="1294485461" x="0px" y="0px" width="25px" height="40px" viewBox="0 0 111.238 160.041" enable-background="new 0 0 111.238 160.041" xml:space="preserve" preserveAspectRatio="none" class="element svg-element">
<path fill="#2A7259" d="M68.571,127.66c2.286-3.048,10.286-14.478,18.477-26.856h0.382l-0.19-0.382  c8.19-12.571,16.571-26.286,18.857-33.714c0-0.19,8.188-25.143-2.667-44.952c0-0.19-23.43-31.81-65.715-18.476  c-0.381,0-1.523,0.381-3.237,1.143l-0.381,0.19c-4.19,1.714-10.857,5.524-17.333,12C5.714,27.66,0.19,42.517,0.571,60.231v0.381  H35.81l3.237-20.381h0.19v-0.19l13.388-10.937l15.932,5.629l6.389,16.846l-6.755,19.7l-27.428,35.619h-0.382v0.19L0,159.851h49.333  v0.19l0.571-0.19h61.333v-33.332L68.571,127.66z M82.667,128.231l26.286-0.763l-25.334,14.286c-0.189-0.191-0.571-0.381-0.952-0.381  V128.231z M81.523,128.231v13.144c-0.381,0-0.57,0.188-0.762,0.381l-12-13.144L81.523,128.231z M68,126.897l-3.619-21.522  c0.19,0,0.572-0.19,0.763-0.382L75.81,115.66C72,121.185,69.143,125.185,68,126.897z M63.429,106.138l3.618,21.522l-17.904,1.903  c0-0.188-0.19-0.381-0.19-0.57L63.429,106.138z M63.048,101.944l-6.095-12.762l21.714-4c0.19,0.381,0.19,0.572,0.571,0.762  l-13.904,16c-0.381-0.188-0.763-0.381-1.144-0.381S63.429,101.756,63.048,101.944z M76.19,115.089l-10.477-10.477  c0.189-0.381,0.382-0.571,0.382-0.952c0-0.19,0-0.382-0.191-0.571l19.811-2.096C82.477,106.138,79.048,110.897,76.19,115.089z   M66.477,101.944L80,86.326c0.19,0,0.381,0.19,0.571,0.19s0.19,0,0.382,0l5.332,13.523L66.477,101.944z M93.334,59.66  c0.189,0,0.189,0,0.381,0l8.189,13.143l-19.047,9.715L92.953,59.66C93.143,59.66,93.334,59.66,93.334,59.66z M88,28.993  c0.19-0.19,0.19-0.381,0.19-0.762l13.523-4l-8.19,31.429L88,28.993z M81.904,82.897v0.19c-0.381-0.19-0.762-0.382-1.333-0.382  l-3.429-29.904l14.286,4.762c0,0.952,0.381,1.524,0.951,1.905L81.904,82.897z M86.857,99.278l-5.144-13.143  c0.57-0.381,0.952-0.953,0.952-1.715c0-0.189,0-0.381-0.189-0.57l19.619-10.096C98.477,80.993,92.571,90.326,86.857,99.278z   M105.334,66.517c-0.571,1.714-1.334,3.619-2.477,5.905l-8.19-13.143c0.381-0.381,0.763-0.953,0.763-1.524  c0-0.19,0-0.571-0.19-0.762l12.952-10.286l-0.571-0.762L94.857,56.231l-0.19-0.19l8.381-33.143  C113.143,42.136,105.334,66.136,105.334,66.517z M86.285,8.612c10.668,6.095,16.382,13.714,16.382,13.905s0.19,0.19,0.19,0.381  L88.19,27.47c-0.19-0.762-0.952-1.524-1.905-1.524V8.612z M87.238,29.755l5.333,26.095c-0.381,0.19-0.762,0.381-0.952,0.762  L76.953,51.66l9.332-21.714C86.667,29.946,86.857,29.946,87.238,29.755z M85.523,26.136h-0.189L62.667,12.231c0,0,0,0,0-0.19  l22.856-3.429V26.136z M61.143,1.184c9.523,0.381,17.523,3.238,23.811,6.667L62.286,11.28c-0.188-0.381-0.762-0.762-1.143-0.762  V1.184z M37.714,4.231C45.905,1.565,53.333,0.803,60,0.993v9.333c-0.381,0.19-0.762,0.381-1.143,0.762L36,4.803  C37.143,4.422,37.714,4.231,37.714,4.231z M58.667,12.041c0,0.19,0,0.19,0,0.381l-21.333,6.857  c-0.381-0.381-0.762-0.762-1.143-0.762L35.048,5.565L58.667,12.041z M34.095,5.755l1.143,12.952  c-0.571,0.19-0.953,0.572-1.143,0.953l-14.477-4.381C25.143,10.327,30.667,7.279,34.095,5.755z M34.476,22.136L24.19,42.517  c-0.19-0.19-0.381-0.19-0.571-0.19c-0.571,0-1.143,0.381-1.523,0.762L7.238,34.898l26.667-13.523  C34.095,21.755,34.286,21.946,34.476,22.136z M18.857,16.041l14.667,4.381L6.095,34.327C9.333,26.517,14.095,20.422,18.857,16.041z   M5.714,35.089l16,8.762c0,0.19-0.189,0.381-0.189,0.571s0,0.571,0.189,0.762L1.524,59.279C1.333,49.755,3.048,41.755,5.714,35.089z   M2.476,59.851l19.81-13.905c0.381,0.381,0.762,0.571,1.333,0.571c0.19,0,0.571,0,0.762-0.19l9.905,13.524H2.476z M35.048,59.089  l-9.714-13.333c0.381-0.381,0.571-0.762,0.571-1.333c0,0,0,0,0-0.19l12.19-3.619L35.048,59.089z M25.333,43.279  c-0.189-0.19-0.189-0.381-0.381-0.572l10.477-20.381c0.189,0,0.189,0,0.381,0l2.286,17.143L25.333,43.279z M38.857,39.089  l-2.286-16.762c0.572-0.19,0.953-0.571,1.143-1.143l14.096,7.238L38.857,39.089z M52.571,27.851l-14.857-7.619l21.144-6.857  c0,0,0.189,0.19,0.189,0.381L52.571,27.851z M53.524,28.422L60,14.327c0.19,0,0.381,0.19,0.571,0.19h0.19L68,33.565L53.524,28.422z   M61.715,13.946c0.189-0.19,0.57-0.381,0.763-0.762l22.285,13.523c-0.19,0.381-0.382,0.572-0.382,1.143c0,0.19,0,0.381,0.19,0.571  l-15.237,5.143L61.715,13.946z M69.693,34.393l15.068-5.209c0.19,0.19,0.381,0.19,0.571,0.381l-9.279,22.086L69.693,34.393z   M68.932,72.354l6.89-20.026l3.607,30.379l-0.19,0.19l-11.136-9.65L68.932,72.354z M67.238,73.946l11.429,9.905  c0,0.19,0,0.381-0.189,0.571L56,88.612L67.238,73.946z M55.619,88.804l6.666,13.715c0,0.188-0.188,0.381-0.188,0.57l-20,3.43  L55.619,88.804z M62.096,104.041c0.188,0.571,0.381,0.952,0.762,1.144L48.19,128.231c-0.19-0.19-0.381-0.19-0.571-0.19  l-5.905-20.571L62.096,104.041z M40.762,108.231l5.904,20c-0.381,0.189-0.571,0.381-0.762,0.57l-16-6.285L40.762,108.231z   M29.143,123.47l16.189,6.286v0.188l-23.429,2.857L29.143,123.47z M45.905,131.66l-17.143,25.522l-6.286-23.428l22.856-2.857  C45.524,131.278,45.714,131.47,45.905,131.66z M2.052,158.707l19.473-25.332l6.856,25.332H2.052z M28.762,158.897l18.095-26.666  c0.189,0,0.189,0,0.381,0l2.095,26.666H28.762L28.762,158.897z M48.19,131.851c0.572-0.381,0.953-0.762,0.953-1.523l17.523-1.715  l-16.571,28.953L48.19,131.851z M67.81,128.993l12.57,13.714c0,0.19-0.189,0.382-0.189,0.571c0,0.19,0,0.572,0.189,0.763  l-29.333,14.097L67.81,128.993z M52,158.897l28.763-14.096c0.381,0.381,0.762,0.572,1.334,0.572c0,0,0,0,0.188,0l4.763,13.523H52  L52,158.897z M88.19,159.089v-0.189l-4.952-13.715c0.19-0.19,0.381-0.19,0.571-0.381l24,14.285H88.19z M110.285,158.897h-0.762  L84.19,143.851c0-0.189,0.189-0.381,0.189-0.57c0-0.19,0-0.381-0.189-0.762l26.095-14.857V158.897z" style="fill: rgb(74, 205, 146);"></path>
</svg>